<?xml version="1.0" standalone="no"?>
<!DOCTYPE svg PUBLIC "-//W3C//DTD SVG 20010904//EN"
 "http://www.w3.org/TR/2001/REC-SVG-20010904/DTD/svg10.dtd">
<svg version="1.0" xmlns="http://www.w3.org/2000/svg"
 width="374.000000pt" height="405.000000pt" viewBox="0 0 374.000000 405.000000"
 preserveAspectRatio="xMidYMid meet">

<g transform="translate(0.000000,405.000000) scale(0.100000,-0.100000)"
fill="#000000" stroke="none">
<path d="M1629 3949 c-20 -20 -21 -29 -18 -175 2 -85 4 -154 3 -154 -39 0
-253 -51 -340 -81 -519 -178 -920 -598 -1078 -1129 -100 -334 -94 -748 15
-1075 130 -388 426 -749 783 -953 508 -291 1169 -311 1679 -50 178 91 301 183
447 334 111 115 170 190 241 305 113 186 188 377 231 591 31 150 33 485 5 615
-38 177 -110 384 -134 383 -4 -1 -53 -24 -108 -53 -118 -61 -115 -49 -56 -217
57 -165 75 -290 68 -464 -16 -383 -164 -714 -442 -991 -266 -266 -564 -399
-955 -425 -436 -30 -844 122 -1150 429 -228 229 -368 499 -422 816 -26 154
-21 420 11 555 78 335 244 615 483 817 116 98 187 144 319 207 421 202 925
192 1331 -27 88 -48 84 -49 152 48 75 107 72 117 -44 185 -182 105 -505 190
-725 190 l-45 0 0 150 c0 192 1 190 -135 190 -83 0 -98 -3 -116 -21z"/>
<path d="M3090 3231 c-150 -49 -221 -207 -156 -346 55 -120 206 -179 321 -126
191 87 193 359 2 457 -35 19 -131 27 -167 15z"/>
<path d="M2457 2638 c-41 -29 -209 -171 -624 -524 -68 -57 -131 -116 -140
-131 -13 -19 -18 -47 -18 -93 0 -58 4 -71 29 -104 56 -74 177 -98 244 -49 15
10 165 203 335 428 324 433 333 448 289 488 -28 26 -65 20 -115 -15z"/>
</g>
</svg>
